#!OML:ASF Y:\EmotionMaleHayes\Project 1\Capture day 1\Session 1\Male1.ASF
:FULLY-SPECIFIED
:DEGREES
806
root 48.1197 17.1782 -1.54875 1200.52 86.8095 1202
lowerback 3.58151 2.16382 -6.29926
upperback 1.03592 2.67563 -0.799921
thorax -1.18722 1.35972 2.57468
lowerneck -21.5666 0.250062 1.42784
upperneck 21.3948 -0.0183357 -0.0219092
head 10.4224 0.150911 -0.239131
rclavicle 2.62147e-014 -1.5704e-014
rhumerus -28.6733 7.81019 -90.0491
rradius 33.9999
rwrist 3.54441
rhand -8.23534 -32.4393
rfingers 7.12502
rthumb 17.6824 -61.6553
lclavicle 2.62147e-014 -1.5704e-014
lhumerus -32.1132 1.59723 84.8526
lradius 18.1513
lwrist -27.3606
lhand -12.6446 -26.2723
lfingers 7.12502
lthumb 13.4357 3.27441
rfemur 7.2744 -2.95469 11.7936
rtibia 4.83946
rfoot -13.6969 1.54757
rtoes 8.01831
lfemur 11.5266 -1.43013 -20.9628
ltibia -0.674145
lfoot -11.6789 9.99003
ltoes -4.80489
807
root 48.1208 17.1764 -1.54566 1204.6 87.1196 1206.11
lowerback 3.62693 2.12904 -5.89582
upperback 1.08877 2.64207 -0.710682
thorax -1.14174 1.33942 2.44344
lowerneck -21.2655 0.442499 2.33827
upperneck 20.9388 0.169113 -0.889896
head 10.2047 0.198222 -0.67065
rclavicle -7.57867e-015 -2.16675e-014
rhumerus -28.8177 8.18911 -90.4233
rradius 33.8888
rwrist 3.13699
rhand -8.8761 -32.3103
rfingers 7.12502
rthumb 17.0657 -61.5807
lclavicle -7.57867e-015 -2.16675e-014
lhumerus -31.9671 1.61618 84.8186
lradius 18.2746
lwrist -27.2173
lhand -12.6685 -26.4318
lfingers 7.12502
lthumb 13.4128 3.11636
rfemur 7.32954 -2.92915 12.2974
rtibia 4.7971
rfoot -13.7328 1.55185
rtoes 7.53908
lfemur 11.5465 -1.42768 -20.4743
ltibia -0.594836
lfoot -11.8128 9.78846
ltoes -5.02327
808
root 48.1221 17.1777 -1.54388 1203.77 86.9813 1205.22
lowerback 3.52279 2.08846 -6.03223
upperback 1.15367 2.59463 -0.745311
thorax -1.01648 1.31193 2.49182
lowerneck -21.2286 0.473309 2.41536
upperneck 20.691 0.226457 -1.06908
head 10.1098 0.204865 -0.737928
rclavicle 3.86139e-014 -1.43125e-014
rhumerus -28.935 8.57155 -90.7481
rradius 33.7776
rwrist 2.81952
rhand -9.22764 -32.3287
rfingers 7.12502
rthumb 16.7273 -61.628
lclavicle 3.86139e-014 -1.43125e-014
lhumerus -31.7817 1.35839 84.9751
lradius 18.3756
lwrist -26.6553
lhand -12.9328 -26.6611
lfingers 7.12502
lthumb 13.1579 2.90371
rfemur 7.26306 -3.12767 12.0913
rtibia 4.7987
rfoot -13.6459 1.63574
rtoes 7.71501
lfemur 11.4516 -1.38602 -20.6317
ltibia -0.514215
lfoot -12.0893 9.57775
ltoes -3.72743
809
root 48.1229 17.1786 -1.54267 1203.12 86.8578 1204.49
lowerback 3.5438 2.06015 -6.16364
upperback 1.08884 2.54764 -0.757696
thorax -1.09597 1.29191 2.55243
lowerneck -21.1298 0.492308 2.43221
upperneck 20.593 0.278032 -1.18595
head 10.0576 0.214823 -0.77411
rclavicle -1.86733e-014 -7.35503e-015
rhumerus -29.223 8.75166 -90.979
rradius 33.6252
rwrist 3.10572
rhand -8.88728 -32.3225
rfingers 7.12502
rthumb 17.0549 -61.5938
lclavicle -1.86733e-014 -7.35503e-015
lhumerus -31.8153 0.89039 85.2615
lradius 18.597
lwrist -25.7978
lhand -13.0324 -26.6729
lfingers 7.12502
lthumb 13.062 2.89813
rfemur 7.15666 -3.43475 11.8659
rtibia 4.87634
rfoot -13.5824 1.76526
rtoes 7.6721
lfemur 11.3514 -1.33734 -20.7698
ltibia -0.509515
lfoot -12.2824 9.47904
ltoes -2.8811
810
root 48.1266 17.1818 -1.54454 1202.15 86.558 1203.38
lowerback 3.32921 2.01527 -6.38637
upperback 1.12772 2.49985 -0.851151
thorax -0.936176 1.26386 2.59145
lowerneck -21.2861 0.499729 2.35192
upperneck 20.6901 0.274387 -1.04016
head 10.1209 0.224852 -0.710233
rclavicle -3.42531e-014 3.77691e-015
rhumerus -29.3364 8.72413 -91.1461
rradius 33.4785
rwrist 3.5292
rhand -8.38798 -32.2151
rfingers 7.12502
rthumb 17.5355 -61.4442
lclavicle -3.42531e-014 3.77691e-015
lhumerus -31.6561 0.509704 85.4823
lradius 18.8309
lwrist -25.1394
lhand -13.0737 -26.5742
lfingers 7.12502
lthumb 13.0222 2.99935
rfemur 7.08374 -3.96703 11.3571
rtibia 4.85688
rfoot -13.4283 2.22229
rtoes 7.76344
lfemur 11.1815 -1.31448 -21.1656
ltibia -0.455903
lfoot -12.2912 9.38218
ltoes -3.52401
811
root 48.137 17.1808 -1.53118 1204.4 86.8458 1205.68
lowerback 3.23985 2.04153 -6.17146
upperback 1.20686 2.55153 -0.748548
thorax -0.805007 1.28381 2.58006
lowerneck -21.4047 0.563442 2.45938
upperneck 20.6812 0.357858 -1.18075
head 10.1414 0.253503 -0.765705
rclavicle 1.42131e-014 9.34288e-015
rhumerus -29.5511 8.57253 -91.2993
rradius 33.4803
rwrist 3.85076
rhand -7.94309 -32.242
rfingers 7.12502
rthumb 17.9636 -61.4325
lclavicle 1.42131e-014 9.34288e-015
lhumerus -31.5516 0.147762 85.6761
lradius 19.0359
lwrist -24.6617
lhand -13.1984 -26.5951
lfingers 7.12502
lthumb 12.9019 2.98607
rfemur 7.24726 -3.48519 11.9468
rtibia 4.64814
rfoot -13.4912 1.73834
rtoes 6.67866
lfemur 11.2923 -1.31584 -20.6621
ltibia -0.502465
lfoot -12.14 9.38411
ltoes -4.53774
812
root 48.1399 17.1825 -1.53612 1203.81 86.5269 1204.99
lowerback 3.20785 1.9923 -6.33404
upperback 1.15144 2.48154 -0.862537
thorax -0.839414 1.25154 2.55648
lowerneck -21.3674 0.590646 2.55515
upperneck 20.6901 0.378536 -1.23048
head 10.1385 0.265109 -0.796082
rclavicle 2.57675e-014 -4.57205e-015
rhumerus -29.9522 8.56016 -91.5334
rradius 33.5234
rwrist 4.01959
rhand -7.51318 -32.5187
rfingers 7.12502
rthumb 18.3772 -61.6707
lclavicle 2.57675e-014 -4.57205e-015
lhumerus -31.6006 -0.375981 85.9359
lradius 19.2381
lwrist -24.0238
lhand -13.4024 -26.7017
lfingers 7.12502
lthumb 12.7053 2.89179
rfemur 7.14986 -4.18984 11.3781
rtibia 4.7608
rfoot -13.4132 2.38755
rtoes 7.0642
lfemur 11.091 -1.26093 -21.0826
ltibia -0.313073
lfoot -12.1763 9.20839
ltoes -4.15696
813
root 48.1419 17.1826 -1.53482 1204.24 86.5798 1205.39
lowerback 3.15462 1.97112 -6.26835
upperback 1.20052 2.46181 -0.840461
thorax -0.755472 1.23835 2.54662
lowerneck -21.4246 0.560349 2.42473
upperneck 20.6867 0.350869 -1.12748
head 10.1467 0.253964 -0.74215
rclavicle 5.86415e-015 3.37934e-015
rhumerus -30.2004 8.77256 -91.7737
rradius 33.5025
rwrist 4.09979
rhand -7.04525 -32.8153
rfingers 7.12502
rthumb 18.8273 -61.9242
lclavicle 5.86415e-015 3.37934e-015
lhumerus -31.5065 -0.735107 86.1768
lradius 19.4464
lwrist -23.4351
lhand -13.7505 -26.8781
lfingers 7.12502
lthumb 12.3697 2.73591
rfemur 7.11352 -4.4255 11.3928
rtibia 4.84081
rfoot -13.4086 2.57583
rtoes 6.35676
lfemur 11.0132 -1.28697 -21.0239
ltibia -0.158825
lfoot -12.3966 9.1993
ltoes -2.93324
814
root 48.1444 17.1824 -1.53405 1204.44 86.6354 1205.57
lowerback 3.01802 1.96059 -6.1857
upperback 1.3052 2.46603 -0.830211
thorax -0.568441 1.23354 2.51823
lowerneck -21.4716 0.517315 2.20817
upperneck 20.5775 0.307916 -0.929733
head 10.1146 0.239061 -0.642419
rclavicle -1.43373e-014 8.54774e-015
rhumerus -30.3289 8.96253 -91.9767
rradius 33.4465
rwrist 4.12931
rhand -6.58146 -33.0006
rfingers 7.12502
rthumb 19.2733 -62.0655
lclavicle -1.43373e-014 8.54774e-015
lhumerus -31.3292 -0.948027 86.3329
lradius 19.7126
lwrist -23.0961
lhand -13.9592 -26.9598
lfingers 7.12502
lthumb 12.1684 2.66632
rfemur 7.1216 -4.37288 11.4559
rtibia 4.80467
rfoot -13.4068 2.69903
rtoes 7.88883
lfemur 11.0472 -1.35196 -20.9926
ltibia -0.235512
lfoot -12.3399 9.27787
ltoes -3.24586
